# AST/ASF file generated using VICON BodyLanguage
# -----------------------------------------------
:version 1.10
:name VICON
:units
  mass 1.0
  length 0.45
  angle deg
:documentation
   .ast/.asf automatically generated from VICON data using
   VICON BodyBuilder and BodyLanguage model FoxedUp or BRILLIANT.MOD
:root
   order TX TY TZ RX RY RZ
   axis XYZ
   position 0 0 0  
   orientation 0 0 0 
:bonedata
  begin
     id 1 
     name lhipjoint
     direction 0.627457 -0.725269 0.283342 
     length 2.53237 
     axis 0 0 0  XYZ
  end
  begin
     id 2 
     name lfemur
     direction 0.34202 -0.939693 0  
     length 7.32496  
     axis 0 0 20  XYZ
    dof rx ry rz
    limits (-160.0 20.0)
           (-70.0 70.0)
           (-60.0 70.0)
  end
  begin
     id 3 
     name ltibia
     direction 0.34202 -0.939693 0   
     length 7.69674   
     axis 0 0 20   XYZ
    dof rx
    limits (-10.0 170.0)
  end
  begin
     id 4 
     name lfoot
     direction 0.127289 -0.349722 0.928166   
     length 1.8612   
     axis -90 7.62852e-016 20   XYZ
    dof rx rz
    limits (-45.0 90.0)
           (-70.0 20.0)
  end
  begin
     id 5 
     name ltoes
     direction 1.53561e-011 -4.21864e-011 1   
     length 0.925608   
     axis -90 7.62852e-016 20   XYZ
    dof rx
    limits (-90.0 20.0)
  end
  begin
     id 6 
     name rhipjoint
     direction -0.609094 -0.738725 0.288599   
     length 2.48624  
     axis 0 0 0  XYZ 
  end
  begin
     id 7 
     name rfemur
     direction -0.34202 -0.939693 0   
     length 7.44259   
     axis 0 0 -20   XYZ
    dof rx ry rz
    limits (-160.0 20.0)
           (-70.0 70.0)
           (-70.0 60.0)
  end
  begin
     id 8 
     name rtibia
     direction -0.34202 -0.939693 0   
     length 7.7781   
     axis 0 0 -20   XYZ
    dof rx
    limits (-10.0 170.0)
 end
 begin
     id 9 
     name rfoot
     direction -0.107015 -0.294021 0.949789   
     length 2.14741  
     axis -90 -7.62852e-016 -20   XYZ
    dof rx rz
    limits (-45.0 90.0)
           (-20.0 70.0)
  end
  begin
     id 10 
     name rtoes
     direction -1.53497e-011 -4.21924e-011 1   
     length 1.0706   
     axis -90 -7.62852e-016 -20   XYZ
    dof rx
    limits (-90.0 20.0)
  end
  begin
     id 11 
     name lowerback
     direction -0.0142066 0.998112 -0.0597545   
     length 1.86627   
     axis 0 0 0   XYZ
    dof rx ry rz
    limits (-20.0 45.0)
           (-30.0 30.0)
           (-30.0 30.0)
  end
  begin
     id 12 
     name upperback
     direction 0.00547294 0.999744 0.0219437   
     length 1.86272   
     axis 0 0 0   XYZ
    dof rx ry rz
    limits (-20.0 45.0)
           (-30.0 30.0)
           (-30.0 30.0)
  end
  begin
     id 13 
     name thorax
     direction 0.0116162 0.998704 0.0495538   
     length 1.8703   
     axis 0 0 0   XYZ
    dof rx ry rz
    limits (-20.0 45.0)
           (-30.0 30.0)
           (-30.0 30.0)
  end
  begin
     id 14 
     name lowerneck
     direction -0.0106574 0.998739 0.0490586   
     length 1.8074   
     axis 0 0 0   XYZ
    dof rx ry rz
    limits (-20.0 45.0)
           (-30.0 30.0)
           (-30.0 30.0)
  end
  begin
     id 15 
     name upperneck
     direction 0.030527 0.976587 -0.212944   
     length 1.80681   
     axis 0 0 0   XYZ
    dof rx ry rz
    limits (-20.0 45.0)
           (-30.0 30.0)
           (-30.0 30.0)
  end
  begin
     id 16
     name head
     direction 0.00869225 0.997035 -0.0764531  
     length 1.8313  
     axis 0 0 0   XYZ
    dof rx ry rz
    limits (-20.0 45.0)
           (-30.0 30.0)
           (-30.0 30.0)
  end
  begin
     id 17 
     name lclavicle
     direction 0.915958 0.399447 0.0382386  
     length 3.78965  
     axis 0 0 0   XYZ
    dof ry rz
    limits (-20.0 10.0)
           (0.0 20.0)
  end
  begin
     id 18 
     name lhumerus
     direction 1 -4.48967e-011 3.19303e-027   
     length 4.78095   
     axis -180 -30 -90   XYZ
    dof rx ry rz
    limits (-60.0 90.0)
           (-90.0 90.0)
           (-90.0 90.0)
  end
  begin
     id 19
     name lradius
     direction 1 -4.48967e-011 -3.77974e-027   
     length 3.58615   
     axis -180 -30 -90   XYZ
    dof rx
    limits (-10.0 170.0)
  end
  begin
     id 20
     name lwrist
     direction 1 -4.48927e-011 1.2807e-027   
     length 1.79307   
     axis 1.91374e-015 90 90   XYZ
    dof ry
    limits (-180.0 0.0)
 end
  begin
     id 21 
     name lhand
     direction 1 -4.49036e-011 2.5614e-027   
     length 0.659812   
     axis -1.63439e-015 90 90   XYZ
    dof rx rz
    limits (-90.0 90.0)
           (-45.0 45.0)
  end
  begin
     id 22 
     name lfingers
     direction 1 -4.49052e-011 5.1228e-027   
     length 0.531957   
     axis -3.26879e-015 90 90   XYZ
    dof rx
    limits (0.0 90.0)
  end
  begin
     id 23
     name lthumb
     direction 0.707107 -6.35012e-011 0.707107   
     length 0.763787   
     axis -90 45 2.85299e-015   XYZ
    dof rx rz
    limits (-45.0 45.0)
           (-45.0 45.0)
  end
  begin
     id 24 
     name rclavicle
     direction -0.895351 0.435135 0.0948887   
     length 3.70497  
     axis 0 0 0   XYZ 
    dof ry rz
    limits (-10.0 20.0)
           (-20.0 0.0)
  end
  begin
     id 25 
     name rhumerus
     direction -1 -4.48971e-011 2.38946e-027  
     length 4.48913   
     axis -180 30 90   XYZ
    dof rx ry rz
    limits (-90.0 60.0)
           (-90.0 90.0)
           (-90.0 90.0)
  end
  begin
     id 26 
     name rradius
     direction -1 -4.4895e-011 4.38668e-027   
     length 3.7051   
     axis -180 30 90   XYZ
    dof rx
    limits (-10.0 170.0)
  end
  begin
     id 27 
     name rwrist
     direction -1 -4.49007e-011 1.2807e-027   
     length 1.85255   
     axis 1.91374e-015 -90 -90   XYZ
    dof ry
    limits (-180.0 0.0)
  end
  begin
     id 28
     name rhand
     direction -1 -4.48851e-011 2.5614e-027   
     length 0.449136   
     axis -1.63439e-015 -90 -90   XYZ
    dof rx rz
    limits (-90.0 90.0)
           (-45.0 45.0)
  end
  begin
     id 29
     name rfingers
     direction -1 -4.49128e-011 5.1228e-027   
     length 0.362105   
     axis -3.26879e-015 -90 -90   XYZ
    dof rx
    limits (0.0 90.0)
  end
  begin
     id 30
     name rthumb
     direction -0.707107 -6.34851e-011 0.707107   
     length 0.519912   
     axis -90 -45 -2.85299e-015   XYZ
    dof rx rz
    limits (-45.0 45.0)
           (-45.0 45.0)
  end
:hierarchy
  begin
    root lhipjoint rhipjoint lowerback
    lhipjoint lfemur
    lfemur ltibia
    ltibia lfoot
    lfoot ltoes
    rhipjoint rfemur
    rfemur rtibia
    rtibia rfoot
    rfoot rtoes
    lowerback upperback
    upperback thorax
    thorax lowerneck lclavicle rclavicle
    lowerneck upperneck
    upperneck head
    lclavicle lhumerus
    lhumerus lradius
    lradius lwrist
    lwrist lhand lthumb
    lhand lfingers
    rclavicle rhumerus
    rhumerus rradius
    rradius rwrist
    rwrist rhand rthumb
    rhand rfingers
  end

#!OML:ASF I:\Actors\actors\Patient Classification 2\Patient 1\Session 1\actor1.ASF
:FULLY-SPECIFIED
:DEGREES
59
root -1.15816 17.9928 5.4248 -3.61021 -3.62319 -2.10812
lowerback 9.88651 1.68067 0.0331386
upperback 3.00865 2.25631 0.878104
thorax -2.4472 1.11987 0.62307
lowerneck -14.0733 -2.39324 -2.97102
upperneck 16.3302 -3.3893 4.06541
head 7.46052 -1.4254 1.46306
rclavicle -2.23819e-014 -6.75868e-015
rhumerus -48.3751 5.17605 -84.6372
rradius 48.1757
rwrist 2.15612
rhand -10.3989 -24.5376
rfingers 7.12502
rthumb 15.5995 -53.9285
lclavicle -2.23819e-014 -6.75868e-015
lhumerus -44.1711 -3.91589 88.3784
lradius 51.2044
lwrist 13.8372
lhand -7.77462 -25.7294
lfingers 7.12502
lthumb 18.1257 3.44603
rfemur 21.1875 -0.987752 17.6876
rtibia -18.8922
rfoot -7.53364 -14.6503
rtoes 2.61826
lfemur 22.0166 -2.26167 -14.6661
ltibia -21.7901
lfoot 0.482069 17.8781
ltoes -16.2165
60
root -1.16783 17.9883 5.43651 -3.70432 -3.58978 -2.2102
lowerback 9.8985 1.67713 0.0985488
upperback 3.01185 2.25852 0.892571
thorax -2.44857 1.1209 0.600764
lowerneck -14.0064 -2.35191 -2.91657
upperneck 16.2971 -3.33854 4.03178
head 7.43445 -1.402 1.449
rclavicle 2.01207e-014 -3.57812e-015
rhumerus -48.5175 5.08517 -84.7197
rradius 48.0448
rwrist 1.75436
rhand -10.6421 -24.8407
rfingers 7.12502
rthumb 15.3652 -54.2497
lclavicle 2.01207e-014 -3.57812e-015
lhumerus -44.4289 -3.99829 88.3884
lradius 51.4307
lwrist 13.9815
lhand -7.41919 -25.5248
lfingers 7.12502
lthumb 18.4676 3.61857
rfemur 21.3864 -0.929159 17.8383
rtibia -18.9548
rfoot -7.6608 -14.6911
rtoes 2.81223
lfemur 22.2445 -2.36461 -14.5367
ltibia -21.9397
lfoot 0.522823 17.9358
ltoes -15.4219
61
root -1.17728 17.9855 5.44871 -3.75067 -3.53091 -2.32838
lowerback 9.87284 1.6735 0.174165
upperback 2.98349 2.26238 0.926064
thorax -2.46234 1.1228 0.592746
lowerneck -13.9406 -2.31395 -2.87053
upperneck 16.2939 -3.28405 3.95884
head 7.41769 -1.38073 1.42386
rclavicle -4.57826e-015 -8.29926e-015
rhumerus -48.6912 4.97645 -84.7519
rradius 47.9652
rwrist 1.57473
rhand -10.7741 -24.997
rfingers 7.12502
rthumb 15.2381 -54.4158
lclavicle -4.57826e-015 -8.29926e-015
lhumerus -44.7297 -4.06766 88.4535
lradius 51.6816
lwrist 14.0271
lhand -7.19935 -25.484
lfingers 7.12502
lthumb 18.6791 3.63918
rfemur 21.5136 -0.988145 17.9911
rtibia -18.9792
rfoot -7.71624 -14.6814
rtoes 2.78975
lfemur 22.4089 -2.44162 -14.3875
ltibia -22.0712
lfoot 0.55428 17.9746
ltoes -14.6816
62
root -1.18701 17.9831 5.46098 -3.74386 -3.46983 -2.42872
lowerback 9.79939 1.69633 0.221776
upperback 2.93333 2.2989 0.968719
thorax -2.47416 1.14101 0.607095
lowerneck -13.9615 -2.30909 -2.88305
upperneck 16.3861 -3.27124 3.92686
head 7.45068 -1.37738 1.41682
rclavicle 1.07592e-014 -1.14301e-015
rhumerus -48.8882 4.81303 -84.7207
rradius 48.0172
rwrist 1.80969
rhand -10.5789 -25.0777
rfingers 7.12502
rthumb 15.4261 -54.4821
lclavicle 1.07592e-014 -1.14301e-015
lhumerus -45.0176 -4.21032 88.6022
lradius 51.9171
lwrist 14.0436
lhand -7.17605 -25.5054
lfingers 7.12502
lthumb 18.7015 3.61565
rfemur 21.5677 -1.11846 18.1161
rtibia -18.9846
rfoot -7.69318 -14.6455
rtoes 2.72581
lfemur 22.4796 -2.51521 -14.2624
ltibia -22.1671
lfoot 0.630598 18.0101
ltoes -14.8381
63
root -1.1983 17.9827 5.47398 -3.68114 -3.38286 -2.50312
lowerback 9.61885 1.72471 0.193161
upperback 2.90629 2.33481 1.02148
thorax -2.4065 1.15916 0.678514
lowerneck -14.0895 -2.34936 -2.91977
upperneck 16.5002 -3.32299 3.94557
head 7.51351 -1.40016 1.42263
rclavicle -3.03768e-015 6.95746e-016
rhumerus -49.0339 4.69264 -84.6775
rradius 48.113
rwrist 2.24848
rhand -10.2333 -25.0807
rfingers 7.12502
rthumb 15.759 -54.4591
lclavicle -3.03768e-015 6.95746e-016
lhumerus -45.2349 -4.34928 88.7769
lradius 52.1569
lwrist 14.1137
lhand -7.16741 -25.4357
lfingers 7.12502
lthumb 18.7098 3.68456
rfemur 21.5719 -1.245 18.2222
rtibia -19.0041
rfoot -7.65071 -14.6198
rtoes 2.67838
lfemur 22.4465 -2.61555 -14.1589
ltibia -22.2156
lfoot 0.732796 18.0392
ltoes -15.2749
64
root -1.21016 17.9841 5.48617 -3.57796 -3.27754 -2.50722
lowerback 9.38759 1.75822 0.0935796
upperback 2.87757 2.36967 1.03797
thorax -2.31396 1.17694 0.754094
lowerneck -14.2179 -2.42353 -2.97975
upperneck 16.5619 -3.43288 4.06109
head 7.56373 -1.44336 1.45763
rclavicle -1.72694e-015 2.03754e-015
rhumerus -49.1723 4.64645 -84.7155
rradius 48.1019
rwrist 2.35358
rhand -10.1985 -24.9186
rfingers 7.12502
rthumb 15.7925 -54.2944
lclavicle -1.72694e-015 2.03754e-015
lhumerus -45.3888 -4.42324 88.8999
lradius 52.3103
lwrist 14.0886
lhand -7.08111 -25.3204
lfingers 7.12502
lthumb 18.7928 3.79177
rfemur 21.5348 -1.42626 18.2419
rtibia -19.0454
rfoot -7.53517 -14.539
rtoes 2.28577
lfemur 22.3402 -2.70625 -14.1233
ltibia -22.2096
lfoot 0.787276 18.0385
ltoes -15.5749
65
root -1.2222 17.984 5.49791 -3.50853 -3.18621 -2.48241
lowerback 9.23886 1.79952 0.00539672
upperback 2.80723 2.41615 1.01971
thorax -2.30822 1.2005 0.782843
lowerneck -14.2068 -2.4926 -3.03845
upperneck 16.5605 -3.54773 4.23188
head 7.57007 -1.48583 1.51107
rclavicle 9.29318e-015 -6.01324e-015
rhumerus -49.3764 4.60978 -84.8384
rradius 47.959
rwrist 2.24594
rhand -10.3976 -24.6763
rfingers 7.12502
rthumb 15.6007 -54.0672
lclavicle 9.29318e-015 -6.01324e-015
lhumerus -45.5762 -4.50448 88.9779
lradius 52.3766
lwrist 14.0089
lhand -6.90023 -25.2821
lfingers 7.12502
lthumb 18.9668 3.81311
rfemur 21.5324 -1.57265 18.2303
rtibia -19.0794
rfoot -7.49081 -14.4472
rtoes 2.16411
lfemur 22.2682 -2.83581 -14.1255
ltibia -22.1652
lfoot 0.715406 18.0771
ltoes -15.4557
66
root -1.23485 17.9834 5.51121 -3.48929 -3.14593 -2.45205
lowerback 9.14924 1.85923 -0.0438865
upperback 2.71717 2.49083 0.989478
thorax -2.35383 1.23808 0.77209
lowerneck -14.1266 -2.57598 -3.10664
upperneck 16.5637 -3.67787 4.38148
head 7.56637 -1.53911 1.55805
rclavicle 1.07033e-014 -6.16232e-015
rhumerus -49.615 4.50911 -84.9573
rradius 47.7673
rwrist 2.26513
rhand -10.4405 -24.4715
rfingers 7.12502
rthumb 15.5594 -53.8656
lclavicle 1.07033e-014 -6.16232e-015
lhumerus -45.8111 -4.67873 89.0816
lradius 52.3939
lwrist 14.0094
lhand -6.65342 -25.1692
lfingers 7.12502
lthumb 19.2041 3.90265
rfemur 21.5767 -1.61969 18.2244
rtibia -19.0831
rfoot -7.56385 -14.3727
rtoes 2.47949
lfemur 22.2709 -2.96113 -14.1408
ltibia -22.1253
lfoot 0.625501 18.1517
ltoes -15.2718
67
root -1.24727 17.9846 5.52432 -3.47358 -3.15899 -2.43694
lowerback 9.07828 1.94237 -0.0400011
upperback 2.6361 2.60144 0.961591
thorax -2.39873 1.29341 0.729618
lowerneck -14.1199 -2.68496 -3.26716
upperneck 16.6033 -3.82754 4.55734
head 7.59109 -1.60374 1.62618
rclavicle -1.3977e-015 3.27995e-015
rhumerus -49.86 4.4313 -85.0901
rradius 47.6025
rwrist 2.13363
rhand -11.123 -24.7704
rfingers 7.12502
rthumb 14.902 -54.2144
lclavicle -1.3977e-015 3.27995e-015
lhumerus -46.0617 -4.99593 89.268
lradius 52.445
lwrist 14.1341
lhand -6.39511 -24.9156
lfingers 7.12502
lthumb 19.4525 4.13138
rfemur 21.5925 -1.62441 18.2417
rtibia -19.0563
rfoot -7.58268 -14.3102
rtoes 2.55404
lfemur 22.2928 -3.01619 -14.1369
ltibia -22.1083
lfoot 0.621843 18.2082
ltoes -15.5895
68
root -1.25903 17.9863 5.53438 -3.44444 -3.16457 -2.48336
lowerback 9.01484 1.99611 0.0201024
upperback 2.57688 2.67838 0.952445
thorax -2.42291 1.33175 0.67901
lowerneck -14.157 -2.75179 -3.44789
upperneck 16.6325 -3.92412 4.78821
head 7.61986 -1.63861 1.72117
rclavicle 2.57178e-015 6.95746e-016
rhumerus -50.0569 4.51938 -85.3089
rradius 47.4999
rwrist 1.98119
rhand -11.9006 -25.1944
rfingers 7.12502
rthumb 14.1528 -54.6924
lclavicle 2.57178e-015 6.95746e-016
lhumerus -46.3141 -5.33282 89.4724
lradius 52.5769
lwrist 14.3263
lhand -6.0493 -24.6267
lfingers 7.12502
lthumb 19.785 4.3863
rfemur 21.57 -1.62886 18.3337
rtibia -19.0067
rfoot -7.57653 -14.2727
rtoes 2.55536
lfemur 22.3079 -3.06974 -14.0605
ltibia -22.1107
lfoot 0.616079 18.2652
ltoes -15.8537
